<svg xmlns="http://www.w3.org/2000/svg" xmlns:xlink="http://www.w3.org/1999/xlink" width="409.044" height="32" viewBox="0 0 409.044 32">
  <defs>
    <clipPath id="clip-path">
      <rect id="Rectangle_291805" data-name="Rectangle 291805" width="409.044" height="32" fill="#fff"/>
    </clipPath>
  </defs>
  <g id="Group_217586" data-name="Group 217586" transform="translate(0 0)">
    <g id="Group_217585" data-name="Group 217585" transform="translate(0 0)" clip-path="url(#clip-path)">
      <path id="Path_415061" data-name="Path 415061" d="M410.321,15.129V29.762a.313.313,0,0,1-.585.156l-8.559-14.945a.31.31,0,0,0-.272-.156h-4.621a.312.312,0,0,0-.312.312V35.785a.312.312,0,0,0,.312.312h3.157a.312.312,0,0,0,.312-.312V21.218a.314.314,0,0,1,.589-.153L408.7,35.942a.315.315,0,0,0,.276.16l4.664-.018a.312.312,0,0,0,.312-.312V15.129a.312.312,0,0,0-.312-.312h-3.008a.312.312,0,0,0-.312.312Z" transform="translate(-252.124 -9.434)" fill="#fff"/>
      <path id="Path_415062" data-name="Path 415062" d="M305.662,14.787h-3.887a.311.311,0,0,0-.291.2l-8.13,20.667a.313.313,0,0,0,.291.429h3.033a.311.311,0,0,0,.291-.2l6.521-16.05a.315.315,0,0,1,.585,0l6.259,16.042a.315.315,0,0,0,.291.2h2.932a.315.315,0,0,0,.294-.425L305.956,14.99A.319.319,0,0,0,305.662,14.787Z" transform="translate(-186.771 -9.415)" fill="#fff"/>
      <path id="Path_415063" data-name="Path 415063" d="M506.636,14.877H492.014a.312.312,0,0,0-.312.312V35.827a.312.312,0,0,0,.312.312h14.593a.312.312,0,0,0,.312-.312V33.008a.312.312,0,0,0-.312-.312H495.644a.312.312,0,0,1-.312-.312l.007-13.75a.312.312,0,0,1,.312-.312h10.978a.312.312,0,0,0,.312-.312l.007-2.812a.316.316,0,0,0-.312-.316Zm-1.464,12V24.141a.312.312,0,0,0-.312-.312h-7.425a.312.312,0,0,0-.312.312v2.735a.312.312,0,0,0,.312.312h7.425a.312.312,0,0,0,.312-.312" transform="translate(-313.078 -9.473)" fill="#fff"/>
      <path id="Path_415064" data-name="Path 415064" d="M118.927,36.11a11.465,11.465,0,0,0,2.194-.24,5.53,5.53,0,0,0,4.7-5.195,5.218,5.218,0,0,0-2.7-5.384c-.1-.058-.2-.109-.305-.16a5.8,5.8,0,0,0,1.264-1.3,5.647,5.647,0,0,0-.28-6.884,4.969,4.969,0,0,0-1.2-1.072,7.346,7.346,0,0,0-4.065-1.039h-9.024a.312.312,0,0,0-.312.312V35.79a.313.313,0,0,0,.316.312h9.4Zm2.681-15.141a2.566,2.566,0,0,1-1.675,2.481,4.107,4.107,0,0,1-1.275.28h-3.793a.312.312,0,0,0-.312.312v2.623a.313.313,0,0,0,.316.312l4.189-.007a3.624,3.624,0,0,1,2.085.6.233.233,0,0,1,.047.036,2.877,2.877,0,0,1-1.453,5.028,6.823,6.823,0,0,1-.977.084l-5.682-.015a.312.312,0,0,1-.312-.312V18.538a.312.312,0,0,1,.312-.312l5.329-.015a4.132,4.132,0,0,1,1.729.316,2.434,2.434,0,0,1,1.471,2.394v.047Z" transform="translate(-69.531 -9.443)" fill="#fff"/>
      <path id="Path_415065" data-name="Path 415065" d="M213.575,28.393a.311.311,0,0,1,.134-.447,6.61,6.61,0,0,0,3.691-4.483,6.831,6.831,0,0,0-6.848-8.566h-8.788a.312.312,0,0,0-.312.312V35.836a.312.312,0,0,0,.312.312h2.979a.312.312,0,0,0,.312-.312l-.015-17.23a.312.312,0,0,1,.312-.312l5.442-.011a3.292,3.292,0,0,1,3.088,2.314,3.744,3.744,0,0,1-.265,2.87,3.306,3.306,0,0,1-1.991,1.646,8.324,8.324,0,0,1-1.689.251h-2.8a.312.312,0,0,0-.312.312v2.634a.312.312,0,0,0,.312.312h2.34a.322.322,0,0,1,.269.149l4.4,7.215a.314.314,0,0,0,.269.149h3.3a.314.314,0,0,0,.269-.476l-4.417-7.266Z" transform="translate(-128.269 -9.485)" fill="#fff"/>
      <path id="Path_415066" data-name="Path 415066" d="M14.051,37.093a4.885,4.885,0,0,1-3.033-1.635,15.276,15.276,0,0,1-2.739-3.8c-.051-.1-.1-.2-.149-.3a22.032,22.032,0,0,1-.9-2.129c-.236-.654-.45-1.337-.636-2.031-.16-.6-.3-1.213-.414-1.827-.094-.509-.178-1.021-.243-1.522-.047-.381-.087-.759-.116-1.115-.018-.24-.029-.461-.036-.679,0-.134,0-.265,0-.4a9.682,9.682,0,0,1,.149-1.7,3.743,3.743,0,0,1,.381-1.141,1.753,1.753,0,0,1,.6-.661,1.6,1.6,0,0,1,.785-.225,3.019,3.019,0,0,1,.9.124,7.094,7.094,0,0,1,.992.371c.392.178.774.374,1.064.53.269.142.534.287.8.436l.312.171c.356.2.741.4,1.137.6.425.214.785.374,1.133.512a7.086,7.086,0,0,0,1.09.341c.759.167,1.449.28,2.06.378,2.35.381,3.647.589,3.339,3.117a11.11,11.11,0,0,1-1.548,4.054,24.047,24.047,0,0,0-2.354,5.674c-.472,1.769-1.264,2.725-2.347,2.837a2.209,2.209,0,0,1-.222.011ZM6.041,22.05c0,.214.015.429.033.665.025.352.065.723.113,1.1.065.5.145,1.006.24,1.508.116.61.254,1.217.411,1.809.182.687.4,1.362.628,2.009a21.137,21.137,0,0,0,.894,2.1c.047.1.1.2.149.3,1.388,2.706,3.862,5.475,5.736,5.278.966-.1,1.682-1,2.125-2.648a24.25,24.25,0,0,1,2.376-5.729,10.807,10.807,0,0,0,1.518-3.963c.28-2.278-.788-2.452-3.121-2.826-.614-.1-1.308-.211-2.071-.378a7.232,7.232,0,0,1-1.13-.356c-.352-.138-.719-.305-1.152-.523-.4-.2-.785-.407-1.144-.6l-.312-.171c-.265-.145-.53-.291-.8-.432s-.661-.349-1.046-.523a6.538,6.538,0,0,0-.952-.356,2.75,2.75,0,0,0-.821-.116,1.351,1.351,0,0,0-.661.185,1.492,1.492,0,0,0-.512.563,3.512,3.512,0,0,0-.352,1.064,9.487,9.487,0,0,0-.145,1.649v.389Z" transform="translate(-3.679 -11.418)" fill="#fff"/>
      <path id="Path_415067" data-name="Path 415067" d="M12.323,35.082c-.047,0-.1,0-.145,0-1.428-.087-2.7-1.435-3.509-2.55A18.141,18.141,0,0,1,6.2,27.537,29.257,29.257,0,0,1,5.162,15.777c.4-2.568,1.079-3.956,2.122-4.363,1.4-.549,3.19.857,5.082,2.35a17.9,17.9,0,0,0,3.978,2.626c.857.345,1.642.61,2.336.846,2.6.883,4.178,1.413,3.313,4.33a13.228,13.228,0,0,1-2.616,4.454A28.587,28.587,0,0,0,15.5,32.2c-.872,1.911-1.944,2.881-3.182,2.881ZM5.5,15.828a28.9,28.9,0,0,0,1.028,11.6c1.09,3.44,3.448,7.167,5.667,7.3,1.144.073,2.151-.832,2.993-2.674A28.825,28.825,0,0,1,19.1,25.808a12.782,12.782,0,0,0,2.557-4.341c.77-2.6-.44-3.008-3.091-3.905-.7-.236-1.489-.5-2.354-.854a18.253,18.253,0,0,1-4.065-2.674c-1.813-1.428-3.524-2.779-4.744-2.3-.9.352-1.526,1.693-1.9,4.094Z" transform="translate(-3.164 -7.191)" fill="#fff"/>
      <path id="Path_415068" data-name="Path 415068" d="M9.733,33.395a2.675,2.675,0,0,1-.48-.044c-1.3-.229-2.594-1.406-3.734-3.408a20.9,20.9,0,0,1-2.183-6.056A33.882,33.882,0,0,1,3.67,10.25c.8-2.913,1.769-4.428,3.037-4.766,1.711-.458,3.589,1.4,5.576,3.368a20.633,20.633,0,0,0,4.2,3.513c.934.5,1.8.912,2.565,1.271,2.9,1.362,4.654,2.187,3.262,5.471a15.318,15.318,0,0,1-3.586,4.784A32.907,32.907,0,0,0,13.5,30.463C12.327,32.414,11.059,33.4,9.73,33.4ZM4.172,10.385a33.322,33.322,0,0,0-.327,13.4,20.391,20.391,0,0,0,2.125,5.9c.737,1.3,1.922,2.9,3.371,3.15,1.275.222,2.525-.668,3.713-2.648a33.273,33.273,0,0,1,5.3-6.666,14.71,14.71,0,0,0,3.48-4.625c1.2-2.823-.033-3.4-3-4.8-.77-.363-1.646-.774-2.59-1.286a20.913,20.913,0,0,1-4.323-3.6C10.042,7.351,8.266,5.6,6.842,5.978c-1.057.283-1.933,1.722-2.67,4.4Z" transform="translate(-1.777 -3.447)" fill="#fff"/>
      <path id="Path_415069" data-name="Path 415069" d="M6.885,32a3.145,3.145,0,0,1-.8-.1C4.618,31.517,3.252,30.06,2.14,27.68A23.8,23.8,0,0,1,.211,20.615,38.421,38.421,0,0,1,1.817,5.194C3,1.946,4.237.311,5.722.039,7.728-.328,9.7,1.953,11.778,4.369a23.262,23.262,0,0,0,4.428,4.345c1.01.654,1.954,1.192,2.786,1.667,3.186,1.82,5.111,2.917,3.219,6.55a17.417,17.417,0,0,1-4.5,5.1,37.321,37.321,0,0,0-6.5,6.953C9.777,30.99,8.327,32,6.881,32ZM2.467,5.426A37.73,37.73,0,0,0,.894,20.535a23.079,23.079,0,0,0,1.871,6.851C3.79,29.573,5,30.9,6.26,31.226c1.4.36,2.877-.527,4.385-2.641a37.823,37.823,0,0,1,6.612-7.073,16.674,16.674,0,0,0,4.341-4.9c1.588-3.044.258-3.8-2.946-5.631-.839-.48-1.791-1.021-2.819-1.689a23.79,23.79,0,0,1-4.577-4.476C9.308,2.56,7.466.42,5.849.718c-1.2.222-2.307,1.758-3.378,4.7Z" transform="translate(0 0)" fill="#fff"/>
      <rect id="Rectangle_291802" data-name="Rectangle 291802" width="0.363" height="21.335" transform="translate(210.469 5.332)" fill="#fff"/>
      <path id="Path_415070" data-name="Path 415070" d="M637.142,35.426H635.6V22.707h1.54V35.426Z" transform="translate(-404.702 -14.458)" fill="#fff"/>
      <path id="Path_415071" data-name="Path 415071" d="M663.373,38.778c0,1.907-2.158,3.084-4.759,3.084-3.044,0-4.432-1.1-4.432-2.543a2.006,2.006,0,0,1,1.7-1.871,1.991,1.991,0,0,1-1.311-1.773,1.914,1.914,0,0,1,1.446-1.889,2.984,2.984,0,0,1-1.406-2.641c0-1.907,1.638-3.259,3.952-3.259a4.888,4.888,0,0,1,1.965.385,2.512,2.512,0,0,1,2.717-1.965l.345,1.348c-1.29,0-2.023.367-2.292,1.061a2.961,2.961,0,0,1,1.213,2.427c0,1.907-1.638,3.259-3.952,3.259a5.645,5.645,0,0,1-1.482-.174c-.77.174-1.079.559-1.079,1.213s.519,1.043,1.271,1.043h3.2c1.831,0,2.91.9,2.91,2.292Zm-1.424.174c0-.694-.461-1.137-1.907-1.137h-2.583c-1.213,0-1.849.461-1.849,1.2,0,.945,1.061,1.562,3.179,1.562s3.161-.77,3.161-1.62m-5.743-7.807a2.38,2.38,0,1,0,2.35-2.005,2.124,2.124,0,0,0-2.35,2.005" transform="translate(-416.533 -16.75)" fill="#fff"/>
      <path id="Path_415072" data-name="Path 415072" d="M694.241,34.319v6.168H692.7V34.86c0-2.14-1.039-2.852-2.372-2.852-1.406,0-2.986.886-2.986,3.353v5.126H685.8V30.85h1.348l.1,1.5a3.489,3.489,0,0,1,3.237-1.7,3.453,3.453,0,0,1,3.76,3.662Z" transform="translate(-436.666 -19.52)" fill="#fff"/>
      <path id="Path_415073" data-name="Path 415073" d="M717.582,20.892a1.155,1.155,0,1,1,1.155,1.155,1.091,1.091,0,0,1-1.155-1.155m1.925,12.642h-1.54V23.9h1.54Z" transform="translate(-456.901 -12.567)" fill="#fff"/>
      <path id="Path_415074" data-name="Path 415074" d="M736.553,35.358a3.6,3.6,0,0,1-2.485.868,2.416,2.416,0,0,1-2.677-2.583V27.726h-1.929V26.4h1.929V24.082l1.54-.425v2.735H736.5v1.33h-3.567v5.645a1.307,1.307,0,0,0,1.446,1.406,2.195,2.195,0,0,0,1.638-.712l.541,1.29Z" transform="translate(-464.465 -15.063)" fill="#fff"/>
      <path id="Path_415075" data-name="Path 415075" d="M753.922,20.892a1.155,1.155,0,1,1,1.155,1.155,1.091,1.091,0,0,1-1.155-1.155m1.925,12.642h-1.54V23.9h1.54Z" transform="translate(-480.039 -12.567)" fill="#fff"/>
      <path id="Path_415076" data-name="Path 415076" d="M777.541,34.319v6.168H776V34.86c0-2.14-1.039-2.852-2.372-2.852-1.406,0-2.986.886-2.986,3.353v5.126H769.1V30.85h1.348l.1,1.5a3.488,3.488,0,0,1,3.237-1.7,3.453,3.453,0,0,1,3.76,3.662Z" transform="translate(-489.705 -19.52)" fill="#fff"/>
      <path id="Path_415077" data-name="Path 415077" d="M808.643,38.778c0,1.907-2.158,3.084-4.759,3.084-3.044,0-4.432-1.1-4.432-2.543a2.006,2.006,0,0,1,1.7-1.871,1.991,1.991,0,0,1-1.311-1.773,1.914,1.914,0,0,1,1.446-1.889,2.984,2.984,0,0,1-1.406-2.641c0-1.907,1.638-3.259,3.952-3.259a4.888,4.888,0,0,1,1.965.385,2.512,2.512,0,0,1,2.717-1.965l.345,1.348c-1.29,0-2.023.367-2.292,1.061a2.961,2.961,0,0,1,1.213,2.427c0,1.907-1.638,3.259-3.952,3.259a5.645,5.645,0,0,1-1.482-.174c-.77.174-1.079.559-1.079,1.213s.519,1.043,1.271,1.043h3.2c1.831,0,2.91.9,2.91,2.292Zm-1.428.174c0-.694-.461-1.137-1.907-1.137h-2.583c-1.213,0-1.849.461-1.849,1.2,0,.945,1.061,1.562,3.179,1.562s3.16-.77,3.16-1.62m-5.743-7.807a2.38,2.38,0,1,0,2.35-2.005,2.124,2.124,0,0,0-2.35,2.005" transform="translate(-509.029 -16.75)" fill="#fff"/>
      <path id="Path_415078" data-name="Path 415078" d="M853.766,29.028l-2.274,2.314v4.087h-1.54V22.707h1.54v6.554l6.4-6.554h2.023l-5.068,5.184,5.126,7.534h-1.849Z" transform="translate(-541.184 -14.458)" fill="#fff"/>
      <path id="Path_415079" data-name="Path 415079" d="M892.4,34.319v6.168h-1.54V34.86c0-2.14-1.039-2.852-2.372-2.852-1.406,0-2.986.886-2.986,3.353v5.126h-1.54V30.85h1.348l.1,1.5a3.488,3.488,0,0,1,3.237-1.7,3.453,3.453,0,0,1,3.76,3.662Z" transform="translate(-562.839 -19.52)" fill="#fff"/>
      <path id="Path_415080" data-name="Path 415080" d="M924.481,35.677c0,3.121-1.755,5.01-4.665,5.01s-4.664-1.889-4.664-5.01,1.755-5.01,4.664-5.01,4.665,1.889,4.665,5.01m-7.785,0c0,2.292,1.177,3.68,3.124,3.68s3.121-1.388,3.121-3.68S921.764,32,919.82,32s-3.124,1.388-3.124,3.68" transform="translate(-582.698 -19.527)" fill="#fff"/>
      <path id="Path_415081" data-name="Path 415081" d="M960.311,31.2l-3.353,9.638h-1.54L952.7,33.163l-2.565,7.672h-1.54L945.242,31.2h1.715l2.427,7.843,2.623-7.843h1.54l2.623,7.843L958.6,31.2h1.711Z" transform="translate(-601.857 -19.864)" fill="#fff"/>
      <path id="Path_415082" data-name="Path 415082" d="M994.94,30.474c0,.984.251,1.29,1.039,1.29a3.456,3.456,0,0,0,1.406-.269l-.251,1.486a3.744,3.744,0,0,1-1.428.269c-1.562,0-2.314-.828-2.314-2.583V18.987h1.54V30.474Z" transform="translate(-632.515 -12.09)" fill="#fff"/>
      <path id="Path_415083" data-name="Path 415083" d="M1016.993,36.254h-7.266a3.054,3.054,0,0,0,3.142,3.084c1.406,0,2.372-.5,2.717-1.428l1.29.676a4.128,4.128,0,0,1-4.011,2.1c-2.91,0-4.664-1.889-4.664-5.01s1.638-5.01,4.548-5.01,4.316,2.023,4.316,4.508a7.931,7.931,0,0,1-.076,1.079Zm-7.247-1.37h5.842c-.211-1.773-1.2-2.874-2.834-2.874a2.952,2.952,0,0,0-3.008,2.874" transform="translate(-641.945 -19.527)" fill="#fff"/>
      <path id="Path_415084" data-name="Path 415084" d="M1048.228,18.987v14.07h-1.348l-.1-1.678a3.606,3.606,0,0,1-3.295,1.871c-2.677,0-4.4-1.871-4.4-5.01s1.715-5.01,4.4-5.01a3.641,3.641,0,0,1,3.2,1.7V18.991h1.54Zm-1.544,9.369v-.232c0-2.18-1.2-3.546-3.026-3.546s-3.026,1.428-3.026,3.662,1.137,3.662,3.026,3.662,3.026-1.37,3.026-3.546" transform="translate(-661.614 -12.09)" fill="#fff"/>
      <path id="Path_415085" data-name="Path 415085" d="M1080.813,38.778c0,1.907-2.158,3.084-4.759,3.084-3.044,0-4.432-1.1-4.432-2.543a2.006,2.006,0,0,1,1.7-1.871,1.992,1.992,0,0,1-1.311-1.773,1.914,1.914,0,0,1,1.446-1.889,2.984,2.984,0,0,1-1.406-2.641c0-1.907,1.638-3.259,3.953-3.259a4.888,4.888,0,0,1,1.965.385,2.512,2.512,0,0,1,2.717-1.965l.345,1.348c-1.29,0-2.023.367-2.292,1.061a2.961,2.961,0,0,1,1.213,2.427c0,1.907-1.638,3.259-3.952,3.259a5.645,5.645,0,0,1-1.482-.174c-.77.174-1.079.559-1.079,1.213s.52,1.043,1.271,1.043h3.2c1.831,0,2.91.9,2.91,2.292Zm-1.428.174c0-.694-.461-1.137-1.907-1.137H1074.9c-1.213,0-1.849.461-1.849,1.2,0,.945,1.061,1.562,3.179,1.562s3.161-.77,3.161-1.62m-5.743-7.807a2.38,2.38,0,1,0,2.35-2.005,2.124,2.124,0,0,0-2.35,2.005" transform="translate(-682.326 -16.75)" fill="#fff"/>
      <path id="Path_415086" data-name="Path 415086" d="M1110.373,36.254h-7.266a3.054,3.054,0,0,0,3.142,3.084c1.406,0,2.372-.5,2.718-1.428l1.29.676a4.128,4.128,0,0,1-4.01,2.1c-2.91,0-4.665-1.889-4.665-5.01s1.638-5.01,4.548-5.01,4.316,2.023,4.316,4.508a7.919,7.919,0,0,1-.076,1.079Zm-7.247-1.37h5.842c-.211-1.773-1.2-2.874-2.833-2.874A2.952,2.952,0,0,0,1103.126,34.885Z" transform="translate(-701.402 -19.527)" fill="#fff"/>
      <rect id="Rectangle_291803" data-name="Rectangle 291803" width="8.432" height="1.54" transform="translate(227.456 8.249)" fill="#fff"/>
      <rect id="Rectangle_291804" data-name="Rectangle 291804" width="8.432" height="1.54" transform="translate(227.456 19.427)" fill="#fff"/>
    </g>
  </g>
</svg>
